<svg id="e6564026-be2d-4d64-abf6-4357885ce63a" data-name="Red" xmlns="http://www.w3.org/2000/svg" width="40" height="40" viewBox="0 0 40 40"><title>icon-message-chat</title><path d="M36.25,0H3.75A3.75442,3.75442,0,0,0,0,3.75v25A3.75442,3.75442,0,0,0,3.75,32.5H7.5v6.25a1.25,1.25,0,0,0,2,1l9.667-7.25H36.25A3.75442,3.75442,0,0,0,40,28.75v-25A3.75442,3.75442,0,0,0,36.25,0ZM37.5,28.75A1.25116,1.25116,0,0,1,36.25,30H18.75a1.25194,1.25194,0,0,0-.75.25l-8,6v-5A1.24991,1.24991,0,0,0,8.75,30h-5A1.25116,1.25116,0,0,1,2.5,28.75v-25A1.25116,1.25116,0,0,1,3.75,2.5h32.5A1.25116,1.25116,0,0,1,37.5,3.75Z" style="fill:#f22f46"/><path d="M12.5,14.375c-.01593,0-.03064.00433-.04645.0047-.02044.00079-.04022.00433-.06061.0061A1.7566,1.7566,0,1,0,12.5,14.375Zm-.0451,2.49084c.015.00013.03009.00379.0451.00379s.03009-.00366.0451-.00379c-.01568.00116-.02911.00916-.0451.00916S12.47058,16.867,12.4549,16.86584Z" style="fill:#f22f46"/><path d="M20,14.375c-.01624,0-.03131.00433-.04742.00476-.02167.00086-.04242.00458-.064.00647A1.75853,1.75853,0,1,0,20,14.375Z" style="fill:#f22f46"/><circle cx="27.5" cy="16.25" r="1.875" style="fill:#f22f46"/></svg>